<svg id="visual" viewBox="0 0 100 100" width="100" height="100" xmlns="http://www.w3.org/2000/svg" xmlns:xlink="http://www.w3.org/1999/xlink" version="1.1"><rect x="0" y="0" width="100" height="100" fill="#accfce"></rect><path d="M0 29L14 35L29 38L43 43L57 31L71 29L86 27L100 45L100 101L86 101L71 101L57 101L43 101L29 101L14 101L0 101Z" fill="#8e9b99"></path><path d="M0 43L14 45L29 35L43 47L57 52L71 35L86 42L100 34L100 101L86 101L71 101L57 101L43 101L29 101L14 101L0 101Z" fill="#5d696c"></path><path d="M0 56L14 46L29 51L43 65L57 65L71 59L86 46L100 48L100 101L86 101L71 101L57 101L43 101L29 101L14 101L0 101Z" fill="#333a41"></path><path d="M0 73L14 57L29 72L43 73L57 67L71 71L86 61L100 67L100 101L86 101L71 101L57 101L43 101L29 101L14 101L0 101Z" fill="#333a41"></path><path d="M0 83L14 70L29 68L43 84L57 75L71 71L86 77L100 72L100 101L86 101L71 101L57 101L43 101L29 101L14 101L0 101Z" fill="#5d696c"></path><path d="M0 96L14 81L29 91L43 92L57 95L71 86L86 89L100 91L100 101L86 101L71 101L57 101L43 101L29 101L14 101L0 101Z" fill="#8e9b99"></path></svg>