<svg id="visual" viewBox="0 0 100 100" width="100" height="100" xmlns="http://www.w3.org/2000/svg" xmlns:xlink="http://www.w3.org/1999/xlink" version="1.1"><path d="M0 6L5 6L5 7L11 7L11 7L16 7L16 16L21 16L21 14L26 14L26 16L32 16L32 11L37 11L37 10L42 10L42 8L47 8L47 7L53 7L53 8L58 8L58 16L63 16L63 9L68 9L68 14L74 14L74 16L79 16L79 15L84 15L84 13L89 13L89 9L95 9L95 6L100 6L100 9L100 0L100 0L95 0L95 0L89 0L89 0L84 0L84 0L79 0L79 0L74 0L74 0L68 0L68 0L63 0L63 0L58 0L58 0L53 0L53 0L47 0L47 0L42 0L42 0L37 0L37 0L32 0L32 0L26 0L26 0L21 0L21 0L16 0L16 0L11 0L11 0L5 0L5 0L0 0Z" fill="#524fc1"></path><path d="M0 17L5 17L5 23L11 23L11 22L16 22L16 33L21 33L21 28L26 28L26 27L32 27L32 23L37 23L37 25L42 25L42 23L47 23L47 26L53 26L53 24L58 24L58 32L63 32L63 19L68 19L68 32L74 32L74 30L79 30L79 24L84 24L84 19L89 19L89 18L95 18L95 16L100 16L100 18L100 7L100 4L95 4L95 7L89 7L89 11L84 11L84 13L79 13L79 14L74 14L74 12L68 12L68 7L63 7L63 14L58 14L58 6L53 6L53 5L47 5L47 6L42 6L42 8L37 8L37 9L32 9L32 14L26 14L26 12L21 12L21 14L16 14L16 5L11 5L11 5L5 5L5 4L0 4Z" fill="#9b47a9"></path><path d="M0 41L5 41L5 46L11 46L11 52L16 52L16 62L21 62L21 58L26 58L26 57L32 57L32 41L37 41L37 39L42 39L42 43L47 43L47 59L53 59L53 44L58 44L58 71L63 71L63 35L68 35L68 70L74 70L74 45L79 45L79 41L84 41L84 49L89 49L89 58L95 58L95 31L100 31L100 53L100 16L100 14L95 14L95 16L89 16L89 17L84 17L84 22L79 22L79 28L74 28L74 30L68 30L68 17L63 17L63 30L58 30L58 22L53 22L53 24L47 24L47 21L42 21L42 23L37 23L37 21L32 21L32 25L26 25L26 26L21 26L21 31L16 31L16 20L11 20L11 21L5 21L5 15L0 15Z" fill="#be4b8d"></path><path d="M0 63L5 63L5 57L11 57L11 68L16 68L16 75L21 75L21 71L26 71L26 74L32 74L32 60L37 60L37 52L42 52L42 55L47 55L47 74L53 74L53 62L58 62L58 81L63 81L63 52L68 52L68 77L74 77L74 64L79 64L79 61L84 61L84 65L89 65L89 67L95 67L95 50L100 50L100 75L100 51L100 29L95 29L95 56L89 56L89 47L84 47L84 39L79 39L79 43L74 43L74 68L68 68L68 33L63 33L63 69L58 69L58 42L53 42L53 57L47 57L47 41L42 41L42 37L37 37L37 39L32 39L32 55L26 55L26 56L21 56L21 60L16 60L16 50L11 50L11 44L5 44L5 39L0 39Z" fill="#ce5c76"></path><path d="M0 76L5 76L5 71L11 71L11 80L16 80L16 88L21 88L21 79L26 79L26 84L32 84L32 74L37 74L37 65L42 65L42 67L47 67L47 80L53 80L53 70L58 70L58 89L63 89L63 59L68 59L68 86L74 86L74 77L79 77L79 75L84 75L84 75L89 75L89 75L95 75L95 63L100 63L100 89L100 73L100 48L95 48L95 65L89 65L89 63L84 63L84 59L79 59L79 62L74 62L74 75L68 75L68 50L63 50L63 79L58 79L58 60L53 60L53 72L47 72L47 53L42 53L42 50L37 50L37 58L32 58L32 72L26 72L26 69L21 69L21 73L16 73L16 66L11 66L11 55L5 55L5 61L0 61Z" fill="#cf7369"></path><path d="M0 101L5 101L5 101L11 101L11 101L16 101L16 101L21 101L21 101L26 101L26 101L32 101L32 101L37 101L37 101L42 101L42 101L47 101L47 101L53 101L53 101L58 101L58 101L63 101L63 101L68 101L68 101L74 101L74 101L79 101L79 101L84 101L84 101L89 101L89 101L95 101L95 101L100 101L100 101L100 87L100 61L95 61L95 73L89 73L89 73L84 73L84 73L79 73L79 75L74 75L74 84L68 84L68 57L63 57L63 87L58 87L58 68L53 68L53 78L47 78L47 65L42 65L42 63L37 63L37 72L32 72L32 82L26 82L26 77L21 77L21 86L16 86L16 78L11 78L11 69L5 69L5 74L0 74Z" fill="#c98b68"></path></svg>