<svg id="visual" viewBox="0 0 100 100" width="100" height="100" xmlns="http://www.w3.org/2000/svg" xmlns:xlink="http://www.w3.org/1999/xlink" version="1.1"><g stroke-width="1" stroke-linejoin="bevel"><path d="M47.8 38.6L65.6 49.6L52.4 34.2Z" fill="#205a7a" stroke="#205a7a"></path><path d="M65.6 49.6L53.8 33.3L52.4 34.2Z" fill="#081a28" stroke="#081a28"></path><path d="M47.8 38.6L57.7 58.4L65.6 49.6Z" fill="#00101c" stroke="#00101c"></path><path d="M76.9 40.4L54.6 26.4L53.8 33.3Z" fill="#15384f" stroke="#15384f"></path><path d="M53.8 33.3L54.6 26.4L52.4 34.2Z" fill="#00101c" stroke="#00101c"></path><path d="M52.4 34.2L54.6 26.4L47.8 38.6Z" fill="#1d4e6b" stroke="#1d4e6b"></path><path d="M57.7 58.4L67.6 58.2L65.6 49.6Z" fill="#0c2435" stroke="#0c2435"></path><path d="M78.4 51.7L76.9 40.4L65.6 49.6Z" fill="#15384f" stroke="#15384f"></path><path d="M65.6 49.6L76.9 40.4L53.8 33.3Z" fill="#277297" stroke="#277297"></path><path d="M47.8 38.6L44.4 60.6L57.7 58.4Z" fill="#246688" stroke="#246688"></path><path d="M57.7 58.4L52.9 68.8L67.6 58.2Z" fill="#081a28" stroke="#081a28"></path><path d="M44.4 60.6L52.9 65.3L57.7 58.4Z" fill="#0c2435" stroke="#0c2435"></path><path d="M78.4 51.7L78.6 38.8L76.9 40.4Z" fill="#00101c" stroke="#00101c"></path><path d="M76.9 40.4L78.6 38.8L54.6 26.4Z" fill="#1d4e6b" stroke="#1d4e6b"></path><path d="M47.8 38.6L39.2 57.2L44.4 60.6Z" fill="#15384f" stroke="#15384f"></path><path d="M67.6 58.2L78.4 51.7L65.6 49.6Z" fill="#15384f" stroke="#15384f"></path><path d="M83.4 31.3L54.7 20.6L54.6 26.4Z" fill="#277297" stroke="#277297"></path><path d="M54.6 26.4L26.1 28.3L47.8 38.6Z" fill="#246688" stroke="#246688"></path><path d="M47.8 38.6L24.1 45.7L39.2 57.2Z" fill="#19435d" stroke="#19435d"></path><path d="M39.2 57.2L44.2 64.8L44.4 60.6Z" fill="#277297" stroke="#277297"></path><path d="M44.4 60.6L44.2 64.8L52.9 65.3Z" fill="#277297" stroke="#277297"></path><path d="M44.2 64.8L52.9 68.8L52.9 65.3Z" fill="#15384f" stroke="#15384f"></path><path d="M52.9 65.3L52.9 68.8L57.7 58.4Z" fill="#246688" stroke="#246688"></path><path d="M100 55.2L95.9 49.6L100 59.8Z" fill="#00101c" stroke="#00101c"></path><path d="M95.9 49.6L83.4 31.3L78.6 38.8Z" fill="#277297" stroke="#277297"></path><path d="M78.6 38.8L83.4 31.3L54.6 26.4Z" fill="#15384f" stroke="#15384f"></path><path d="M60.7 0L52.4 13.4L54.7 20.6Z" fill="#00101c" stroke="#00101c"></path><path d="M54.7 20.6L26.1 28.3L54.6 26.4Z" fill="#00101c" stroke="#00101c"></path><path d="M23.6 34.3L24.1 45.7L47.8 38.6Z" fill="#1d4e6b" stroke="#1d4e6b"></path><path d="M39.2 57.2L26.4 67.8L44.2 64.8Z" fill="#246688" stroke="#246688"></path><path d="M24.1 45.7L27.2 58.6L39.2 57.2Z" fill="#277297" stroke="#277297"></path><path d="M44.2 64.8L49.8 80.9L52.9 68.8Z" fill="#081a28" stroke="#081a28"></path><path d="M52.4 13.4L26.1 28.3L54.7 20.6Z" fill="#19435d" stroke="#19435d"></path><path d="M26.1 28.3L23.6 34.3L47.8 38.6Z" fill="#15384f" stroke="#15384f"></path><path d="M18.2 61.9L26.6 60.7L27.2 58.6Z" fill="#0c2435" stroke="#0c2435"></path><path d="M27.2 58.6L26.6 60.7L39.2 57.2Z" fill="#1d4e6b" stroke="#1d4e6b"></path><path d="M26.4 67.8L49.8 80.9L44.2 64.8Z" fill="#19435d" stroke="#19435d"></path><path d="M52.9 68.8L73.6 100L67.6 58.2Z" fill="#1d4e6b" stroke="#1d4e6b"></path><path d="M55.2 0L48.6 6.1L52.4 13.4Z" fill="#081a28" stroke="#081a28"></path><path d="M52.4 13.4L40.7 4.1L26.1 28.3Z" fill="#112e42" stroke="#112e42"></path><path d="M18.2 61.9L26.4 67.8L26.6 60.7Z" fill="#277297" stroke="#277297"></path><path d="M26.6 60.7L26.4 67.8L39.2 57.2Z" fill="#00101c" stroke="#00101c"></path><path d="M95.9 49.6L78.4 51.7L100 59.8Z" fill="#1d4e6b" stroke="#1d4e6b"></path><path d="M78.4 51.7L95.9 49.6L78.6 38.8Z" fill="#15384f" stroke="#15384f"></path><path d="M90.8 17.4L83.8 12.2L83.4 31.3Z" fill="#00101c" stroke="#00101c"></path><path d="M83.4 31.3L83.8 12.2L54.7 20.6Z" fill="#112e42" stroke="#112e42"></path><path d="M7.2 40.1L14.3 43.4L23.6 34.3Z" fill="#19435d" stroke="#19435d"></path><path d="M23.6 34.3L14.3 43.4L24.1 45.7Z" fill="#00101c" stroke="#00101c"></path><path d="M24.1 45.7L18.2 61.9L27.2 58.6Z" fill="#277297" stroke="#277297"></path><path d="M14.3 43.4L18.2 61.9L24.1 45.7Z" fill="#246688" stroke="#246688"></path><path d="M48.6 0L40.7 4.1L48.6 6.1Z" fill="#00101c" stroke="#00101c"></path><path d="M48.6 6.1L40.7 4.1L52.4 13.4Z" fill="#0c2435" stroke="#0c2435"></path><path d="M5.1 38.2L7.2 40.1L23.6 34.3Z" fill="#277297" stroke="#277297"></path><path d="M103.7 25.3L90.8 17.4L83.4 31.3Z" fill="#00101c" stroke="#00101c"></path><path d="M95.9 49.6L100 36.4L83.4 31.3Z" fill="#277297" stroke="#277297"></path><path d="M60.7 0L55.2 0L52.4 13.4Z" fill="#19435d" stroke="#19435d"></path><path d="M83.8 12.2L60.7 0L54.7 20.6Z" fill="#081a28" stroke="#081a28"></path><path d="M55.2 0L49.4 0L48.6 6.1Z" fill="#19435d" stroke="#19435d"></path><path d="M49.4 0L48.6 0L48.6 6.1Z" fill="#00101c" stroke="#00101c"></path><path d="M100 59.8L78.4 51.7L100 62.7Z" fill="#297ea6" stroke="#297ea6"></path><path d="M95.9 49.6L103.9 40.2L100 36.4Z" fill="#081a28" stroke="#081a28"></path><path d="M100 62.7L78.4 51.7L100 72.9Z" fill="#205a7a" stroke="#205a7a"></path><path d="M100 72.9L78.4 51.7L67.6 58.2Z" fill="#081a28" stroke="#081a28"></path><path d="M105.8 51.8L103.9 40.2L95.9 49.6Z" fill="#112e42" stroke="#112e42"></path><path d="M100 36.4L103.7 25.3L83.4 31.3Z" fill="#277297" stroke="#277297"></path><path d="M105.8 51.8L95.9 49.6L100 55.2Z" fill="#297ea6" stroke="#297ea6"></path><path d="M105.8 51.8L100 55.2L100 59.8Z" fill="#1d4e6b" stroke="#1d4e6b"></path><path d="M55.2 0L50.1 -3.9L49.4 0Z" fill="#00101c" stroke="#00101c"></path><path d="M49.4 0L50.1 -3.9L48.6 0Z" fill="#00101c" stroke="#00101c"></path><path d="M48.6 0L50.1 -3.9L40.7 4.1Z" fill="#15384f" stroke="#15384f"></path><path d="M60.7 0L50.1 -3.9L55.2 0Z" fill="#297ea6" stroke="#297ea6"></path><path d="M104.7 65.7L105.8 51.8L100 59.8Z" fill="#0c2435" stroke="#0c2435"></path><path d="M5.1 38.2L23.6 34.3L3.3 26.3Z" fill="#297ea6" stroke="#297ea6"></path><path d="M14.3 43.4L0 58.9L18.2 61.9Z" fill="#205a7a" stroke="#205a7a"></path><path d="M106.9 24.1L103.7 25.3L103.9 40.2Z" fill="#00101c" stroke="#00101c"></path><path d="M103.9 40.2L103.7 25.3L100 36.4Z" fill="#0c2435" stroke="#0c2435"></path><path d="M86.9 0L83.8 0L83.8 12.2Z" fill="#15384f" stroke="#15384f"></path><path d="M50.1 -3.9L31.3 0L40.7 4.1Z" fill="#081a28" stroke="#081a28"></path><path d="M40.7 4.1L31.3 0L26.1 28.3Z" fill="#081a28" stroke="#081a28"></path><path d="M103.7 25.3L100 16.3L90.8 17.4Z" fill="#15384f" stroke="#15384f"></path><path d="M83.8 12.2L83.8 0L60.7 0Z" fill="#0c2435" stroke="#0c2435"></path><path d="M86.9 0L83.8 12.2L96.7 2.2Z" fill="#277297" stroke="#277297"></path><path d="M60.7 0L38.8 -25.9L50.1 -3.9Z" fill="#112e42" stroke="#112e42"></path><path d="M106.9 24.1L100 15.6L100 16.3Z" fill="#112e42" stroke="#112e42"></path><path d="M100 16.3L100 15.6L90.8 17.4Z" fill="#15384f" stroke="#15384f"></path><path d="M14.2 -2.7L29.1 0L14.3 -20.9Z" fill="#1d4e6b" stroke="#1d4e6b"></path><path d="M31.3 0L29.1 0L26.1 28.3Z" fill="#1d4e6b" stroke="#1d4e6b"></path><path d="M92.8 89.7L100 72.9L67.6 58.2Z" fill="#1d4e6b" stroke="#1d4e6b"></path><path d="M100 62.7L104.7 65.7L100 59.8Z" fill="#081a28" stroke="#081a28"></path><path d="M3.3 26.3L23.6 34.3L26.1 28.3Z" fill="#15384f" stroke="#15384f"></path><path d="M7.2 40.1L0 58.9L14.3 43.4Z" fill="#0c2435" stroke="#0c2435"></path><path d="M54.3 97.8L58.7 95.9L49.8 80.9Z" fill="#297ea6" stroke="#297ea6"></path><path d="M49.8 80.9L58.7 95.9L52.9 68.8Z" fill="#277297" stroke="#277297"></path><path d="M54.3 97.8L49.8 80.9L35.1 99.9Z" fill="#277297" stroke="#277297"></path><path d="M100 72.9L104.7 65.7L100 62.7Z" fill="#297ea6" stroke="#297ea6"></path><path d="M96.7 2.2L83.8 12.2L90.8 17.4Z" fill="#112e42" stroke="#112e42"></path><path d="M83.8 0L38.8 -25.9L60.7 0Z" fill="#246688" stroke="#246688"></path><path d="M103.7 25.3L106.9 24.1L100 16.3Z" fill="#0c2435" stroke="#0c2435"></path><path d="M105.8 51.8L106.9 24.1L103.9 40.2Z" fill="#112e42" stroke="#112e42"></path><path d="M35.1 99.9L49.8 80.9L33.3 100Z" fill="#00101c" stroke="#00101c"></path><path d="M4.4 21.1L3.3 26.3L26.1 28.3Z" fill="#00101c" stroke="#00101c"></path><path d="M54.3 97.8L56.8 100L58.7 95.9Z" fill="#205a7a" stroke="#205a7a"></path><path d="M73.6 100L92.8 89.7L67.6 58.2Z" fill="#15384f" stroke="#15384f"></path><path d="M5.3 16.6L4.4 21.1L26.1 28.3Z" fill="#112e42" stroke="#112e42"></path><path d="M100 15.6L96.7 2.2L90.8 17.4Z" fill="#19435d" stroke="#19435d"></path><path d="M100 0L96.7 2.2L100 15.6Z" fill="#246688" stroke="#246688"></path><path d="M-6.9 33.4L0 31.4L-7.8 28.4Z" fill="#112e42" stroke="#112e42"></path><path d="M3.3 26.3L0 31.4L5.1 38.2Z" fill="#246688" stroke="#246688"></path><path d="M5.1 38.2L0 58.9L7.2 40.1Z" fill="#081a28" stroke="#081a28"></path><path d="M13.3 1.2L5.3 16.6L26.1 28.3Z" fill="#205a7a" stroke="#205a7a"></path><path d="M-7.8 28.4L0 31.4L3.3 26.3Z" fill="#205a7a" stroke="#205a7a"></path><path d="M73.6 100L52.9 68.8L58.7 95.9Z" fill="#19435d" stroke="#19435d"></path><path d="M100 72.9L104.7 79.8L104.7 65.7Z" fill="#00101c" stroke="#00101c"></path><path d="M67.9 101.7L73.6 100L58.7 95.9Z" fill="#19435d" stroke="#19435d"></path><path d="M-6.9 33.4L0 58.9L5.1 38.2Z" fill="#15384f" stroke="#15384f"></path><path d="M18.2 61.9L6.3 85.9L26.4 67.8Z" fill="#081a28" stroke="#081a28"></path><path d="M54.3 97.8L55.2 104.7L56.8 100Z" fill="#00101c" stroke="#00101c"></path><path d="M56.8 100L67.9 101.7L58.7 95.9Z" fill="#15384f" stroke="#15384f"></path><path d="M0 58.9L0 60.7L18.2 61.9Z" fill="#277297" stroke="#277297"></path><path d="M92.8 89.7L104.7 79.8L100 72.9Z" fill="#1d4e6b" stroke="#1d4e6b"></path><path d="M104.7 65.7L104.7 79.8L105.8 51.8Z" fill="#15384f" stroke="#15384f"></path><path d="M105.8 51.8L105.7 100L106.9 24.1Z" fill="#00101c" stroke="#00101c"></path><path d="M73.6 100L77.9 100L92.8 89.7Z" fill="#19435d" stroke="#19435d"></path><path d="M79.9 106.9L77.9 100L73.6 100Z" fill="#277297" stroke="#277297"></path><path d="M33.3 100L49.8 80.9L26.4 67.8Z" fill="#246688" stroke="#246688"></path><path d="M56.8 100L55.2 104.7L67.9 101.7Z" fill="#081a28" stroke="#081a28"></path><path d="M79.9 106.9L79.4 100L77.9 100Z" fill="#205a7a" stroke="#205a7a"></path><path d="M77.9 100L79.4 100L92.8 89.7Z" fill="#0c2435" stroke="#0c2435"></path><path d="M14.2 -2.7L13.3 1.2L29.1 0Z" fill="#246688" stroke="#246688"></path><path d="M29.1 0L13.3 1.2L26.1 28.3Z" fill="#00101c" stroke="#00101c"></path><path d="M35.1 99.9L55.2 104.7L54.3 97.8Z" fill="#277297" stroke="#277297"></path><path d="M67.9 101.7L79.9 106.9L73.6 100Z" fill="#205a7a" stroke="#205a7a"></path><path d="M28.1 100L33.3 100L26.4 67.8Z" fill="#081a28" stroke="#081a28"></path><path d="M35.1 99.9L23.6 104.9L55.2 104.7Z" fill="#277297" stroke="#277297"></path><path d="M106.9 24.1L100 0L100 15.6Z" fill="#19435d" stroke="#19435d"></path><path d="M96.7 2.2L100 -7.9L86.9 0Z" fill="#1d4e6b" stroke="#1d4e6b"></path><path d="M86.9 0L100 -7.9L83.8 0Z" fill="#277297" stroke="#277297"></path><path d="M0 60.7L0 68.6L18.2 61.9Z" fill="#0c2435" stroke="#0c2435"></path><path d="M38.8 -25.9L29.1 0L31.3 0Z" fill="#205a7a" stroke="#205a7a"></path><path d="M13.3 1.2L0 0L5.3 16.6Z" fill="#246688" stroke="#246688"></path><path d="M26.2 100L28.1 100L26.4 67.8Z" fill="#081a28" stroke="#081a28"></path><path d="M23.6 104.9L66.4 111.9L55.2 104.7Z" fill="#15384f" stroke="#15384f"></path><path d="M0 68.6L0 71.3L18.2 61.9Z" fill="#246688" stroke="#246688"></path><path d="M6.3 85.9L26.2 100L26.4 67.8Z" fill="#00101c" stroke="#00101c"></path><path d="M23.6 104.9L35.1 99.9L33.3 100Z" fill="#205a7a" stroke="#205a7a"></path><path d="M-7.8 28.4L3.3 26.3L4.4 21.1Z" fill="#277297" stroke="#277297"></path><path d="M0 31.4L-6.9 33.4L5.1 38.2Z" fill="#081a28" stroke="#081a28"></path><path d="M0 58.9L-28.9 70.6L0 60.7Z" fill="#112e42" stroke="#112e42"></path><path d="M0 60.7L-28.9 70.6L0 68.6Z" fill="#205a7a" stroke="#205a7a"></path><path d="M0 68.6L-28.9 70.6L0 71.3Z" fill="#15384f" stroke="#15384f"></path><path d="M-7.8 28.4L4.4 21.1L5.3 16.6Z" fill="#15384f" stroke="#15384f"></path><path d="M0 71.3L6.3 85.9L18.2 61.9Z" fill="#246688" stroke="#246688"></path><path d="M0 0L-7.8 28.4L5.3 16.6Z" fill="#081a28" stroke="#081a28"></path><path d="M106.9 24.1L100 -7.9L100 0Z" fill="#081a28" stroke="#081a28"></path><path d="M100 0L100 -7.9L96.7 2.2Z" fill="#15384f" stroke="#15384f"></path><path d="M50.1 -3.9L38.8 -25.9L31.3 0Z" fill="#081a28" stroke="#081a28"></path><path d="M66.4 111.9L79.9 106.9L67.9 101.7Z" fill="#297ea6" stroke="#297ea6"></path><path d="M79.4 100L100 100L92.8 89.7Z" fill="#112e42" stroke="#112e42"></path><path d="M92.8 89.7L105.7 100L104.7 79.8Z" fill="#1d4e6b" stroke="#1d4e6b"></path><path d="M23.6 104.9L33.3 100L28.1 100Z" fill="#081a28" stroke="#081a28"></path><path d="M55.2 104.7L66.4 111.9L67.9 101.7Z" fill="#1d4e6b" stroke="#1d4e6b"></path><path d="M6.3 85.9L23.6 104.9L26.2 100Z" fill="#112e42" stroke="#112e42"></path><path d="M0 71.3L1.3 85.7L6.3 85.9Z" fill="#19435d" stroke="#19435d"></path><path d="M0 88.8L1.3 85.7L-28.9 70.6Z" fill="#00101c" stroke="#00101c"></path><path d="M1.3 85.7L0 71.3L-28.9 70.6Z" fill="#246688" stroke="#246688"></path><path d="M0 100L23.6 104.9L6.3 85.9Z" fill="#00101c" stroke="#00101c"></path><path d="M26.2 100L23.6 104.9L28.1 100Z" fill="#205a7a" stroke="#205a7a"></path><path d="M105.7 100L100 100L79.9 106.9Z" fill="#112e42" stroke="#112e42"></path><path d="M79.9 106.9L100 100L79.4 100Z" fill="#1d4e6b" stroke="#1d4e6b"></path><path d="M14.2 -2.7L0 0L13.3 1.2Z" fill="#112e42" stroke="#112e42"></path><path d="M100 -7.9L38.8 -25.9L83.8 0Z" fill="#081a28" stroke="#081a28"></path><path d="M14.2 -2.7L0 -7.8L0 0Z" fill="#0c2435" stroke="#0c2435"></path><path d="M0 100L0 88.8L-28.9 70.6Z" fill="#0c2435" stroke="#0c2435"></path><path d="M1.3 85.7L0 88.8L6.3 85.9Z" fill="#205a7a" stroke="#205a7a"></path><path d="M66.4 111.9L105.7 100L79.9 106.9Z" fill="#1d4e6b" stroke="#1d4e6b"></path><path d="M100 100L105.7 100L92.8 89.7Z" fill="#277297" stroke="#277297"></path><path d="M104.7 79.8L105.7 100L105.8 51.8Z" fill="#112e42" stroke="#112e42"></path><path d="M14.3 -20.9L0 -7.8L14.2 -2.7Z" fill="#00101c" stroke="#00101c"></path><path d="M0 0L-25.9 37.8L-7.8 28.4Z" fill="#112e42" stroke="#112e42"></path><path d="M38.8 -25.9L14.3 -20.9L29.1 0Z" fill="#1d4e6b" stroke="#1d4e6b"></path><path d="M-25.9 37.8L0 58.9L-6.9 33.4Z" fill="#205a7a" stroke="#205a7a"></path><path d="M0 88.8L0 100L6.3 85.9Z" fill="#19435d" stroke="#19435d"></path><path d="M0 -7.8L-25.9 37.8L0 0Z" fill="#15384f" stroke="#15384f"></path><path d="M-7.8 28.4L-25.9 37.8L-6.9 33.4Z" fill="#277297" stroke="#277297"></path><path d="M14.3 -20.9L0 -22.9L0 -7.8Z" fill="#00101c" stroke="#00101c"></path><path d="M0 -7.8L0 -22.9L-25.9 37.8Z" fill="#297ea6" stroke="#297ea6"></path><path d="M38.8 -25.9L0 -22.9L14.3 -20.9Z" fill="#00101c" stroke="#00101c"></path><path d="M-25.9 37.8L-28.9 70.6L0 58.9Z" fill="#112e42" stroke="#112e42"></path></g></svg>